<svg xmlns="http://www.w3.org/2000/svg" version="1.1" viewBox="1.5210769176483154 2.0956571102142334 488.4416198730469 471.69781494140625" width="491.00" height="475.00">
<g stroke-width="2.00" fill="none" stroke-linecap="butt">
<path stroke="#da8b70" stroke-opacity="0.996" d="&#10;  M 72.96 324.64&#10;  Q 71.05 327.03 69.99 330.52"/>
<path stroke="#e08245" d="&#10;  M 69.99 330.52&#10;  L 54.10 359.32&#10;  Q 53.66 360.11 54.48 360.51&#10;  Q 59.04 362.69 63.93 365.49&#10;  Q 66.60 367.02 73.43 370.14&#10;  Q 80.92 373.56 86.63 376.61&#10;  Q 92.35 379.67 99.30 382.40&#10;  Q 105.05 384.67 112.01 388.06&#10;  Q 118.46 391.21 127.45 394.04&#10;  Q 163.26 405.33 163.58 405.42&#10;  Q 169.48 407.04 171.80 407.77&#10;  Q 174.42 408.59 179.98 409.45&#10;  Q 182.96 409.91 187.18 410.86&#10;  C 194.84 412.60 203.16 412.64 211.07 413.96&#10;  Q 219.14 415.30 226.19 415.61&#10;  Q 249.53 416.61 272.25 415.20&#10;  C 275.73 414.99 279.18 413.61 282.72 413.39&#10;  Q 300.63 412.25 319.21 407.87&#10;  Q 325.57 406.37 331.20 404.59&#10;  Q 341.44 401.34 343.04 400.87&#10;  Q 354.98 397.31 368.19 392.71&#10;  Q 373.64 390.81 380.74 387.41&#10;  Q 383.31 386.18 393.23 381.90&#10;  Q 398.33 379.71 401.43 378.09&#10;  Q 404.32 376.59 409.58 374.25&#10;  Q 415.56 371.59 421.68 368.25&#10;  Q 435.94 360.48 436.65 360.09&#10;  Q 437.16 359.81 437.17 359.38&#10;  Q 437.22 357.36 436.10 355.67&#10;  Q 432.83 350.75 430.67 346.54&#10;  Q 428.43 342.19 426.57 339.05&#10;  Q 424.39 335.40 422.26 331.66"/>
<path stroke="#da8b70" stroke-opacity="0.996" d="&#10;  M 422.26 331.66&#10;  L 418.38 324.35"/>
<path stroke="#e2732e" d="&#10;  M 418.38 324.35&#10;  Q 416.58 319.41 413.40 314.48&#10;  C 410.18 309.49 407.42 303.53 404.46 298.49&#10;  Q 388.71 271.74 373.45 243.11&#10;  Q 372.05 240.48 369.02 235.59&#10;  Q 366.69 231.82 364.66 227.91&#10;  Q 362.47 223.71 358.11 216.37&#10;  Q 352.83 207.50 344.72 193.22&#10;  C 343.90 191.78 343.09 189.80 342.06 188.16&#10;  Q 340.43 185.58 339.89 184.50&#10;  Q 335.42 175.65 330.47 166.88&#10;  A 2.13 2.12 72.5 0 0 328.42 165.81&#10;  Q 324.46 166.19 320.38 167.42&#10;  Q 319.14 167.79 312.36 167.63&#10;  Q 309.93 167.58 308.72 167.16&#10;  Q 307.45 166.73 305.07 166.34&#10;  Q 302.30 165.90 299.73 164.64&#10;  Q 282.87 156.37 279.74 138.45&#10;  Q 278.24 129.85 280.59 123.61&#10;  Q 283.40 116.17 286.85 111.84&#10;  Q 291.65 105.84 298.42 103.01&#10;  A 0.52 0.52 0.0 0 0 298.66 102.25&#10;  Q 295.53 97.30 294.42 95.05&#10;  C 291.94 89.98 289.99 86.98 286.59 81.75&#10;  C 284.21 78.09 282.68 74.49 280.38 70.98&#10;  C 278.57 68.21 277.12 64.69 275.42 61.73&#10;  Q 272.33 56.37 271.53 54.90&#10;  Q 267.16 46.80 264.26 42.54&#10;  Q 261.18 38.02 258.58 32.46&#10;  Q 255.93 26.78 251.19 19.63&#10;  A 0.91 0.90 45.5 0 0 249.70 19.61&#10;  Q 245.78 25.25 241.70 33.41&#10;  Q 237.51 41.80 237.05 42.55&#10;  C 233.62 48.16 230.76 53.65 227.09 59.54&#10;  Q 225.31 62.39 223.63 65.86&#10;  C 222.41 68.38 220.56 70.79 219.38 72.89&#10;  Q 210.75 88.18 205.45 96.33&#10;  Q 202.92 100.22 199.46 106.88&#10;  Q 196.72 112.15 193.42 117.43&#10;  Q 193.04 118.04 181.61 137.87&#10;  Q 180.63 139.58 182.07 138.24&#10;  Q 184.36 136.11 187.65 134.89&#10;  Q 196.00 131.79 204.93 134.60&#10;  C 208.16 135.62 210.79 137.88 213.30 140.19&#10;  Q 222.48 148.61 221.16 161.13&#10;  Q 220.89 163.72 219.49 166.50&#10;  Q 217.06 171.30 214.01 174.75&#10;  Q 213.40 175.45 208.85 178.98&#10;  Q 205.83 181.33 203.05 182.12&#10;  Q 194.74 184.46 188.60 182.74&#10;  Q 178.87 180.02 173.18 169.96&#10;  Q 170.37 165.01 169.56 160.85&#10;  Q 169.10 158.52 170.54 155.72&#10;  Q 170.55 155.70 170.47 155.50&#10;  L 170.46 155.49&#10;  Q 170.39 155.30 170.23 155.55&#10;  Q 163.80 165.93 157.99 176.83&#10;  Q 155.73 181.07 153.87 184.14&#10;  Q 151.95 187.30 149.48 191.29&#10;  Q 148.81 192.37 146.54 196.61&#10;  Q 145.10 199.32 143.25 201.74&#10;  C 140.78 204.95 139.67 209.45 137.27 212.74&#10;  C 134.83 216.09 133.68 219.72 131.26 223.49&#10;  Q 128.29 228.10 127.12 229.87&#10;  C 125.19 232.80 124.31 235.38 122.39 238.03&#10;  Q 121.34 239.46 118.86 244.13&#10;  Q 110.96 258.97 99.90 277.38&#10;  Q 96.09 283.72 89.34 295.85&#10;  C 88.54 297.29 86.72 299.78 85.68 301.79&#10;  Q 79.70 313.30 72.96 324.64"/>
<path stroke="#f4d49d" stroke-opacity="0.996" d="&#10;  M 418.38 324.35&#10;  Q 414.85 326.13 409.06 329.77&#10;  Q 398.01 336.71 384.54 342.24&#10;  C 381.39 343.54 378.73 345.36 375.81 347.07&#10;  Q 371.55 349.57 360.37 353.64&#10;  Q 345.13 359.20 344.93 359.26&#10;  Q 330.81 364.08 329.34 364.40&#10;  Q 322.06 365.99 315.93 367.39&#10;  Q 307.99 369.20 302.49 370.06&#10;  Q 284.76 372.81 268.75 374.11&#10;  Q 262.94 374.58 254.25 374.65&#10;  Q 243.51 374.75 239.75 374.62&#10;  Q 229.30 374.27 228.75 374.27&#10;  Q 222.54 374.25 217.77 373.71&#10;  Q 213.50 373.23 201.11 372.16&#10;  C 198.22 371.91 195.73 371.06 193.08 370.78&#10;  Q 189.76 370.42 187.04 369.91&#10;  Q 174.01 367.44 162.11 364.60&#10;  Q 156.10 363.16 151.69 361.50&#10;  Q 144.70 358.85 134.54 355.32&#10;  Q 128.59 353.25 126.63 352.31&#10;  Q 122.48 350.31 118.88 348.92&#10;  Q 117.11 348.24 109.56 344.54&#10;  Q 105.84 342.72 100.27 340.21&#10;  Q 87.21 334.30 72.96 324.64"/>
<path stroke="#f2e4b3" stroke-opacity="0.996" d="&#10;  M 422.26 331.66&#10;  Q 411.92 336.95 401.86 342.33&#10;  Q 394.29 346.39 376.52 354.27&#10;  Q 375.38 354.77 370.49 356.55&#10;  Q 368.01 357.45 364.50 358.97&#10;  Q 350.22 365.17 331.73 369.94&#10;  Q 327.50 371.03 325.82 371.54&#10;  Q 322.30 372.60 319.89 372.98&#10;  Q 313.95 373.90 305.31 375.77&#10;  C 301.80 376.53 298.11 376.74 295.08 377.51&#10;  C 288.99 379.05 282.50 379.35 276.25 379.69&#10;  Q 273.03 379.87 262.24 380.31&#10;  Q 254.10 380.65 248.27 380.55&#10;  Q 223.96 380.17 199.62 377.33&#10;  Q 192.21 376.46 182.72 374.43&#10;  Q 171.66 372.07 165.96 370.68&#10;  Q 154.64 367.92 152.27 367.46&#10;  Q 147.18 366.47 141.82 364.07&#10;  Q 138.78 362.72 130.92 359.99&#10;  C 127.31 358.74 124.66 357.18 121.22 356.10&#10;  C 115.98 354.47 109.86 351.01 105.91 349.18&#10;  Q 103.24 347.94 97.96 344.95&#10;  Q 93.21 342.25 88.04 340.15&#10;  C 83.79 338.42 80.63 335.92 76.70 333.30&#10;  Q 73.58 331.23 69.99 330.52"/>
<path stroke="#e2732e" d="&#10;  M 6.1346 224.6996&#10;  A 0.31 0.31 0.0 0 0 5.8300 224.3843&#10;  L 5.5301 224.3790&#10;  A 0.31 0.31 0.0 0 0 5.2147 224.6836&#10;  L 4.8454 245.8404&#10;  A 0.31 0.31 0.0 0 0 5.1500 246.1557&#10;  L 5.4499 246.1610&#10;  A 0.31 0.31 0.0 0 0 5.7653 245.8564&#10;  L 6.1346 224.6996"/>
<path stroke="#e2732e" d="&#10;  M 266.2117 85.9225&#10;  A 22.68 22.43 -13.3 0 0 238.9800 69.3116&#10;  A 22.68 22.43 -13.3 0 0 222.0683 96.3575&#10;  A 22.68 22.43 -13.3 0 0 249.3000 112.9684&#10;  A 22.68 22.43 -13.3 0 0 266.2117 85.9225"/>
<path stroke="#e2732e" d="&#10;  M 259.2853 199.3768&#10;  A 14.58 14.28 88.8 0 0 273.2569 184.5009&#10;  A 14.58 14.28 88.8 0 0 258.6747 170.2232&#10;  A 14.58 14.28 88.8 0 0 244.7031 185.0991&#10;  A 14.58 14.28 88.8 0 0 259.2853 199.3768"/>
<path stroke="#e2732e" d="&#10;  M 298.57 323.80&#10;  Q 301.05 324.48 304.56 324.60&#10;  Q 317.54 325.02 328.38 321.01&#10;  Q 337.56 317.61 343.97 313.18&#10;  Q 364.57 298.95 366.52 273.54&#10;  Q 367.64 258.95 362.97 248.27&#10;  Q 351.64 222.37 322.62 214.15&#10;  C 316.03 212.28 308.05 212.69 302.64 212.63&#10;  Q 297.16 212.56 291.97 214.13&#10;  Q 279.41 217.94 269.00 225.83&#10;  C 266.44 227.77 264.53 230.11 261.70 233.20&#10;  Q 258.49 236.70 256.93 239.33&#10;  Q 251.79 248.00 250.55 257.73&#10;  Q 249.56 265.55 250.33 273.94&#10;  Q 251.07 282.02 254.44 289.69&#10;  Q 260.24 302.90 271.83 311.87&#10;  Q 281.12 319.07 296.28 323.16&#10;  Q 296.38 323.19 298.57 323.80"/>
<path stroke="#e2732e" d="&#10;  M 221.5968 235.9948&#10;  A 17.49 16.94 8.3 0 0 206.7354 216.7074&#10;  A 17.49 16.94 8.3 0 0 186.9832 230.9452&#10;  A 17.49 16.94 8.3 0 0 201.8446 250.2326&#10;  A 17.49 16.94 8.3 0 0 221.5968 235.9948"/>
<path stroke="#e2732e" d="&#10;  M 187.9192 298.9218&#10;  A 27.42 26.98 -12.7 0 0 155.2385 278.6301&#10;  A 27.42 26.98 -12.7 0 0 134.4208 310.9782&#10;  A 27.42 26.98 -12.7 0 0 167.1015 331.2699&#10;  A 27.42 26.98 -12.7 0 0 187.9192 298.9218"/>
<path stroke="#e2732e" d="&#10;  M 253.2492 334.5356&#10;  A 14.86 14.33 0.6 0 0 238.5401 320.0508&#10;  A 14.86 14.33 0.6 0 0 223.5308 334.2244&#10;  A 14.86 14.33 0.6 0 0 238.2399 348.7092&#10;  A 14.86 14.33 0.6 0 0 253.2492 334.5356"/>
</g>
<path fill="#c82a02" d="&#10;  M 481.67 299.70&#10;  Q 481.16 305.49 478.86 311.13&#10;  Q 470.45 331.70 462.68 346.47&#10;  Q 454.81 361.43 446.26 372.56&#10;  Q 438.16 383.12 435.89 385.90&#10;  Q 424.18 400.21 415.19 408.19&#10;  Q 411.39 411.56 408.26 414.41&#10;  Q 405.12 417.28 401.15 420.45&#10;  Q 375.77 440.73 346.59 453.79&#10;  Q 341.73 455.97 336.97 457.41&#10;  C 332.46 458.78 328.97 460.56 323.98 462.06&#10;  Q 303.08 468.35 299.38 468.90&#10;  Q 293.63 469.75 285.46 471.06&#10;  Q 276.86 472.43 262.77 473.24&#10;  Q 259.82 473.41 258.07 473.59&#10;  Q 255.73 473.82 253.41 473.79&#10;  Q 226.28 473.45 216.48 472.34&#10;  Q 200.41 470.53 188.54 467.91&#10;  Q 177.96 465.58 169.13 462.36&#10;  C 165.03 460.86 159.84 459.52 156.27 458.13&#10;  Q 133.05 449.11 121.22 441.53&#10;  C 113.31 436.46 106.25 432.40 99.89 427.54&#10;  Q 86.09 416.99 85.01 415.96&#10;  Q 81.21 412.33 77.33 408.86&#10;  Q 72.19 404.26 69.62 401.58&#10;  Q 43.77 374.67 27.01 342.48&#10;  Q 23.92 336.55 20.23 327.60&#10;  Q 15.32 315.71 13.98 312.50&#10;  Q 12.70 309.42 10.91 302.22&#10;  Q 7.00 286.52 5.50 280.99&#10;  Q 4.01 275.50 3.47 267.80&#10;  Q 2.42 252.57 1.67 244.45&#10;  Q 1.23 239.68 2.09 229.67&#10;  Q 2.70 222.49 3.08 216.00&#10;  Q 3.64 206.45 4.53 202.27&#10;  Q 8.19 185.09 12.07 170.82&#10;  Q 13.30 166.32 14.37 163.80&#10;  Q 18.98 152.94 19.46 151.66&#10;  Q 21.62 145.95 22.85 143.50&#10;  Q 24.17 140.87 25.21 138.12&#10;  Q 25.66 136.91 27.86 132.87&#10;  Q 37.01 115.99 48.05 100.72&#10;  Q 51.07 96.55 56.51 90.26&#10;  Q 58.20 88.30 65.19 79.95&#10;  Q 69.67 74.60 76.36 68.79&#10;  Q 78.05 67.33 79.33 65.92&#10;  C 80.23 64.92 81.66 63.14 83.19 62.00&#10;  Q 91.39 55.90 96.28 51.65&#10;  C 102.06 46.63 107.14 43.83 114.61 38.80&#10;  Q 120.73 34.68 125.40 32.53&#10;  Q 129.56 30.61 132.82 28.70&#10;  Q 134.70 27.59 140.33 25.07&#10;  Q 160.07 16.22 171.65 12.93&#10;  Q 179.75 10.62 204.53 5.57&#10;  C 211.11 4.23 218.45 3.69 224.37 3.17&#10;  Q 230.57 2.63 236.16 2.53&#10;  Q 244.41 2.38 247.97 2.12&#10;  C 249.96 1.98 252.17 2.49 254.00 2.48&#10;  Q 273.22 2.38 292.66 6.35&#10;  Q 305.61 8.99 319.35 12.63&#10;  Q 327.29 14.74 337.15 18.82&#10;  Q 353.31 25.51 354.55 26.19&#10;  Q 359.20 28.77 362.14 30.13&#10;  Q 366.64 32.22 369.51 34.00&#10;  Q 389.75 46.58 394.40 50.46&#10;  Q 395.90 51.71 407.49 60.96&#10;  C 410.80 63.60 414.30 67.95 418.23 71.19&#10;  C 420.36 72.95 422.26 74.61 424.05 76.82&#10;  Q 427.36 80.88 431.33 85.20&#10;  Q 436.04 90.33 438.23 93.21&#10;  Q 451.72 110.96 454.46 115.79&#10;  C 461.41 127.99 465.70 134.64 469.96 145.32&#10;  Q 470.83 147.51 475.27 157.22&#10;  Q 478.20 163.62 480.22 170.13&#10;  Q 480.99 172.61 482.35 179.10&#10;  Q 483.39 184.09 484.40 188.07&#10;  Q 485.10 190.83 487.12 200.61&#10;  Q 488.09 205.33 488.64 213.28&#10;  Q 489.04 219.11 489.70 226.25&#10;  Q 490.24 232.14 489.67 252.25&#10;  Q 489.21 268.43 485.62 285.05&#10;  Q 485.02 287.85 483.57 292.34&#10;  Q 481.84 297.69 481.67 299.70&#10;  Z&#10;  M 72.96 324.64&#10;  Q 71.05 327.03 69.99 330.52&#10;  L 54.10 359.32&#10;  Q 53.66 360.11 54.48 360.51&#10;  Q 59.04 362.69 63.93 365.49&#10;  Q 66.60 367.02 73.43 370.14&#10;  Q 80.92 373.56 86.63 376.61&#10;  Q 92.35 379.67 99.30 382.40&#10;  Q 105.05 384.67 112.01 388.06&#10;  Q 118.46 391.21 127.45 394.04&#10;  Q 163.26 405.33 163.58 405.42&#10;  Q 169.48 407.04 171.80 407.77&#10;  Q 174.42 408.59 179.98 409.45&#10;  Q 182.96 409.91 187.18 410.86&#10;  C 194.84 412.60 203.16 412.64 211.07 413.96&#10;  Q 219.14 415.30 226.19 415.61&#10;  Q 249.53 416.61 272.25 415.20&#10;  C 275.73 414.99 279.18 413.61 282.72 413.39&#10;  Q 300.63 412.25 319.21 407.87&#10;  Q 325.57 406.37 331.20 404.59&#10;  Q 341.44 401.34 343.04 400.87&#10;  Q 354.98 397.31 368.19 392.71&#10;  Q 373.64 390.81 380.74 387.41&#10;  Q 383.31 386.18 393.23 381.90&#10;  Q 398.33 379.71 401.43 378.09&#10;  Q 404.32 376.59 409.58 374.25&#10;  Q 415.56 371.59 421.68 368.25&#10;  Q 435.94 360.48 436.65 360.09&#10;  Q 437.16 359.81 437.17 359.38&#10;  Q 437.22 357.36 436.10 355.67&#10;  Q 432.83 350.75 430.67 346.54&#10;  Q 428.43 342.19 426.57 339.05&#10;  Q 424.39 335.40 422.26 331.66&#10;  L 418.38 324.35&#10;  Q 416.58 319.41 413.40 314.48&#10;  C 410.18 309.49 407.42 303.53 404.46 298.49&#10;  Q 388.71 271.74 373.45 243.11&#10;  Q 372.05 240.48 369.02 235.59&#10;  Q 366.69 231.82 364.66 227.91&#10;  Q 362.47 223.71 358.11 216.37&#10;  Q 352.83 207.50 344.72 193.22&#10;  C 343.90 191.78 343.09 189.80 342.06 188.16&#10;  Q 340.43 185.58 339.89 184.50&#10;  Q 335.42 175.65 330.47 166.88&#10;  A 2.13 2.12 72.5 0 0 328.42 165.81&#10;  Q 324.46 166.19 320.38 167.42&#10;  Q 319.14 167.79 312.36 167.63&#10;  Q 309.93 167.58 308.72 167.16&#10;  Q 307.45 166.73 305.07 166.34&#10;  Q 302.30 165.90 299.73 164.64&#10;  Q 282.87 156.37 279.74 138.45&#10;  Q 278.24 129.85 280.59 123.61&#10;  Q 283.40 116.17 286.85 111.84&#10;  Q 291.65 105.84 298.42 103.01&#10;  A 0.52 0.52 0.0 0 0 298.66 102.25&#10;  Q 295.53 97.30 294.42 95.05&#10;  C 291.94 89.98 289.99 86.98 286.59 81.75&#10;  C 284.21 78.09 282.68 74.49 280.38 70.98&#10;  C 278.57 68.21 277.12 64.69 275.42 61.73&#10;  Q 272.33 56.37 271.53 54.90&#10;  Q 267.16 46.80 264.26 42.54&#10;  Q 261.18 38.02 258.58 32.46&#10;  Q 255.93 26.78 251.19 19.63&#10;  A 0.91 0.90 45.5 0 0 249.70 19.61&#10;  Q 245.78 25.25 241.70 33.41&#10;  Q 237.51 41.80 237.05 42.55&#10;  C 233.62 48.16 230.76 53.65 227.09 59.54&#10;  Q 225.31 62.39 223.63 65.86&#10;  C 222.41 68.38 220.56 70.79 219.38 72.89&#10;  Q 210.75 88.18 205.45 96.33&#10;  Q 202.92 100.22 199.46 106.88&#10;  Q 196.72 112.15 193.42 117.43&#10;  Q 193.04 118.04 181.61 137.87&#10;  Q 180.63 139.58 182.07 138.24&#10;  Q 184.36 136.11 187.65 134.89&#10;  Q 196.00 131.79 204.93 134.60&#10;  C 208.16 135.62 210.79 137.88 213.30 140.19&#10;  Q 222.48 148.61 221.16 161.13&#10;  Q 220.89 163.72 219.49 166.50&#10;  Q 217.06 171.30 214.01 174.75&#10;  Q 213.40 175.45 208.85 178.98&#10;  Q 205.83 181.33 203.05 182.12&#10;  Q 194.74 184.46 188.60 182.74&#10;  Q 178.87 180.02 173.18 169.96&#10;  Q 170.37 165.01 169.56 160.85&#10;  Q 169.10 158.52 170.54 155.72&#10;  Q 170.55 155.70 170.47 155.50&#10;  L 170.46 155.49&#10;  Q 170.39 155.30 170.23 155.55&#10;  Q 163.80 165.93 157.99 176.83&#10;  Q 155.73 181.07 153.87 184.14&#10;  Q 151.95 187.30 149.48 191.29&#10;  Q 148.81 192.37 146.54 196.61&#10;  Q 145.10 199.32 143.25 201.74&#10;  C 140.78 204.95 139.67 209.45 137.27 212.74&#10;  C 134.83 216.09 133.68 219.72 131.26 223.49&#10;  Q 128.29 228.10 127.12 229.87&#10;  C 125.19 232.80 124.31 235.38 122.39 238.03&#10;  Q 121.34 239.46 118.86 244.13&#10;  Q 110.96 258.97 99.90 277.38&#10;  Q 96.09 283.72 89.34 295.85&#10;  C 88.54 297.29 86.72 299.78 85.68 301.79&#10;  Q 79.70 313.30 72.96 324.64&#10;  Z&#10;  M 6.1346 224.6996&#10;  A 0.31 0.31 0.0 0 0 5.8300 224.3843&#10;  L 5.5301 224.3790&#10;  A 0.31 0.31 0.0 0 0 5.2147 224.6836&#10;  L 4.8454 245.8404&#10;  A 0.31 0.31 0.0 0 0 5.1500 246.1557&#10;  L 5.4499 246.1610&#10;  A 0.31 0.31 0.0 0 0 5.7653 245.8564&#10;  L 6.1346 224.6996&#10;  Z"/>
<path fill="#fbbb5a" d="&#10;  M 418.38 324.35&#10;  Q 414.85 326.13 409.06 329.77&#10;  Q 398.01 336.71 384.54 342.24&#10;  C 381.39 343.54 378.73 345.36 375.81 347.07&#10;  Q 371.55 349.57 360.37 353.64&#10;  Q 345.13 359.20 344.93 359.26&#10;  Q 330.81 364.08 329.34 364.40&#10;  Q 322.06 365.99 315.93 367.39&#10;  Q 307.99 369.20 302.49 370.06&#10;  Q 284.76 372.81 268.75 374.11&#10;  Q 262.94 374.58 254.25 374.65&#10;  Q 243.51 374.75 239.75 374.62&#10;  Q 229.30 374.27 228.75 374.27&#10;  Q 222.54 374.25 217.77 373.71&#10;  Q 213.50 373.23 201.11 372.16&#10;  C 198.22 371.91 195.73 371.06 193.08 370.78&#10;  Q 189.76 370.42 187.04 369.91&#10;  Q 174.01 367.44 162.11 364.60&#10;  Q 156.10 363.16 151.69 361.50&#10;  Q 144.70 358.85 134.54 355.32&#10;  Q 128.59 353.25 126.63 352.31&#10;  Q 122.48 350.31 118.88 348.92&#10;  Q 117.11 348.24 109.56 344.54&#10;  Q 105.84 342.72 100.27 340.21&#10;  Q 87.21 334.30 72.96 324.64&#10;  Q 79.70 313.30 85.68 301.79&#10;  C 86.72 299.78 88.54 297.29 89.34 295.85&#10;  Q 96.09 283.72 99.90 277.38&#10;  Q 110.96 258.97 118.86 244.13&#10;  Q 121.34 239.46 122.39 238.03&#10;  C 124.31 235.38 125.19 232.80 127.12 229.87&#10;  Q 128.29 228.10 131.26 223.49&#10;  C 133.68 219.72 134.83 216.09 137.27 212.74&#10;  C 139.67 209.45 140.78 204.95 143.25 201.74&#10;  Q 145.10 199.32 146.54 196.61&#10;  Q 148.81 192.37 149.48 191.29&#10;  Q 151.95 187.30 153.87 184.14&#10;  Q 155.73 181.07 157.99 176.83&#10;  Q 163.80 165.93 170.23 155.55&#10;  Q 170.39 155.30 170.46 155.49&#10;  L 170.47 155.50&#10;  Q 170.55 155.70 170.54 155.72&#10;  Q 169.10 158.52 169.56 160.85&#10;  Q 170.37 165.01 173.18 169.96&#10;  Q 178.87 180.02 188.60 182.74&#10;  Q 194.74 184.46 203.05 182.12&#10;  Q 205.83 181.33 208.85 178.98&#10;  Q 213.40 175.45 214.01 174.75&#10;  Q 217.06 171.30 219.49 166.50&#10;  Q 220.89 163.72 221.16 161.13&#10;  Q 222.48 148.61 213.30 140.19&#10;  C 210.79 137.88 208.16 135.62 204.93 134.60&#10;  Q 196.00 131.79 187.65 134.89&#10;  Q 184.36 136.11 182.07 138.24&#10;  Q 180.63 139.58 181.61 137.87&#10;  Q 193.04 118.04 193.42 117.43&#10;  Q 196.72 112.15 199.46 106.88&#10;  Q 202.92 100.22 205.45 96.33&#10;  Q 210.75 88.18 219.38 72.89&#10;  C 220.56 70.79 222.41 68.38 223.63 65.86&#10;  Q 225.31 62.39 227.09 59.54&#10;  C 230.76 53.65 233.62 48.16 237.05 42.55&#10;  Q 237.51 41.80 241.70 33.41&#10;  Q 245.78 25.25 249.70 19.61&#10;  A 0.91 0.90 45.5 0 1 251.19 19.63&#10;  Q 255.93 26.78 258.58 32.46&#10;  Q 261.18 38.02 264.26 42.54&#10;  Q 267.16 46.80 271.53 54.90&#10;  Q 272.33 56.37 275.42 61.73&#10;  C 277.12 64.69 278.57 68.21 280.38 70.98&#10;  C 282.68 74.49 284.21 78.09 286.59 81.75&#10;  C 289.99 86.98 291.94 89.98 294.42 95.05&#10;  Q 295.53 97.30 298.66 102.25&#10;  A 0.52 0.52 0.0 0 1 298.42 103.01&#10;  Q 291.65 105.84 286.85 111.84&#10;  Q 283.40 116.17 280.59 123.61&#10;  Q 278.24 129.85 279.74 138.45&#10;  Q 282.87 156.37 299.73 164.64&#10;  Q 302.30 165.90 305.07 166.34&#10;  Q 307.45 166.73 308.72 167.16&#10;  Q 309.93 167.58 312.36 167.63&#10;  Q 319.14 167.79 320.38 167.42&#10;  Q 324.46 166.19 328.42 165.81&#10;  A 2.13 2.12 72.5 0 1 330.47 166.88&#10;  Q 335.42 175.65 339.89 184.50&#10;  Q 340.43 185.58 342.06 188.16&#10;  C 343.09 189.80 343.90 191.78 344.72 193.22&#10;  Q 352.83 207.50 358.11 216.37&#10;  Q 362.47 223.71 364.66 227.91&#10;  Q 366.69 231.82 369.02 235.59&#10;  Q 372.05 240.48 373.45 243.11&#10;  Q 388.71 271.74 404.46 298.49&#10;  C 407.42 303.53 410.18 309.49 413.40 314.48&#10;  Q 416.58 319.41 418.38 324.35&#10;  Z&#10;  M 266.2117 85.9225&#10;  A 22.68 22.43 -13.3 0 0 238.9800 69.3116&#10;  A 22.68 22.43 -13.3 0 0 222.0683 96.3575&#10;  A 22.68 22.43 -13.3 0 0 249.3000 112.9684&#10;  A 22.68 22.43 -13.3 0 0 266.2117 85.9225&#10;  Z&#10;  M 259.2853 199.3768&#10;  A 14.58 14.28 88.8 0 0 273.2569 184.5009&#10;  A 14.58 14.28 88.8 0 0 258.6747 170.2232&#10;  A 14.58 14.28 88.8 0 0 244.7031 185.0991&#10;  A 14.58 14.28 88.8 0 0 259.2853 199.3768&#10;  Z&#10;  M 298.57 323.80&#10;  Q 301.05 324.48 304.56 324.60&#10;  Q 317.54 325.02 328.38 321.01&#10;  Q 337.56 317.61 343.97 313.18&#10;  Q 364.57 298.95 366.52 273.54&#10;  Q 367.64 258.95 362.97 248.27&#10;  Q 351.64 222.37 322.62 214.15&#10;  C 316.03 212.28 308.05 212.69 302.64 212.63&#10;  Q 297.16 212.56 291.97 214.13&#10;  Q 279.41 217.94 269.00 225.83&#10;  C 266.44 227.77 264.53 230.11 261.70 233.20&#10;  Q 258.49 236.70 256.93 239.33&#10;  Q 251.79 248.00 250.55 257.73&#10;  Q 249.56 265.55 250.33 273.94&#10;  Q 251.07 282.02 254.44 289.69&#10;  Q 260.24 302.90 271.83 311.87&#10;  Q 281.12 319.07 296.28 323.16&#10;  Q 296.38 323.19 298.57 323.80&#10;  Z&#10;  M 221.5968 235.9948&#10;  A 17.49 16.94 8.3 0 0 206.7354 216.7074&#10;  A 17.49 16.94 8.3 0 0 186.9832 230.9452&#10;  A 17.49 16.94 8.3 0 0 201.8446 250.2326&#10;  A 17.49 16.94 8.3 0 0 221.5968 235.9948&#10;  Z&#10;  M 187.9192 298.9218&#10;  A 27.42 26.98 -12.7 0 0 155.2385 278.6301&#10;  A 27.42 26.98 -12.7 0 0 134.4208 310.9782&#10;  A 27.42 26.98 -12.7 0 0 167.1015 331.2699&#10;  A 27.42 26.98 -12.7 0 0 187.9192 298.9218&#10;  Z&#10;  M 253.2492 334.5356&#10;  A 14.86 14.33 0.6 0 0 238.5401 320.0508&#10;  A 14.86 14.33 0.6 0 0 223.5308 334.2244&#10;  A 14.86 14.33 0.6 0 0 238.2399 348.7092&#10;  A 14.86 14.33 0.6 0 0 253.2492 334.5356&#10;  Z"/>
<ellipse fill="#c82a02" cx="0.00" cy="0.00" transform="translate(244.14,91.14) rotate(-13.3)" rx="22.68" ry="22.43"/>
<ellipse fill="#c82a02" cx="0.00" cy="0.00" transform="translate(258.98,184.80) rotate(88.8)" rx="14.58" ry="14.28"/>
<path fill="#c82a02" d="&#10;  M 296.28 323.16&#10;  Q 281.12 319.07 271.83 311.87&#10;  Q 260.24 302.90 254.44 289.69&#10;  Q 251.07 282.02 250.33 273.94&#10;  Q 249.56 265.55 250.55 257.73&#10;  Q 251.79 248.00 256.93 239.33&#10;  Q 258.49 236.70 261.70 233.20&#10;  C 264.53 230.11 266.44 227.77 269.00 225.83&#10;  Q 279.41 217.94 291.97 214.13&#10;  Q 297.16 212.56 302.64 212.63&#10;  C 308.05 212.69 316.03 212.28 322.62 214.15&#10;  Q 351.64 222.37 362.97 248.27&#10;  Q 367.64 258.95 366.52 273.54&#10;  Q 364.57 298.95 343.97 313.18&#10;  Q 337.56 317.61 328.38 321.01&#10;  Q 317.54 325.02 304.56 324.60&#10;  Q 301.05 324.48 298.57 323.80&#10;  Q 296.38 323.19 296.28 323.16&#10;  Z"/>
<ellipse fill="#c82a02" cx="0.00" cy="0.00" transform="translate(204.29,233.47) rotate(8.3)" rx="17.49" ry="16.94"/>
<rect fill="#fbbb5a" x="-0.46" y="-10.89" transform="translate(5.49,235.27) rotate(1.0)" width="0.92" height="21.78" rx="0.31"/>
<ellipse fill="#c82a02" cx="0.00" cy="0.00" transform="translate(161.17,304.95) rotate(-12.7)" rx="27.42" ry="26.98"/>
<ellipse fill="#c82a02" cx="0.00" cy="0.00" transform="translate(238.39,334.38) rotate(0.6)" rx="14.86" ry="14.33"/>
<path fill="#edeee0" fill-opacity="0.988" d="&#10;  M 72.96 324.64&#10;  Q 87.21 334.30 100.27 340.21&#10;  Q 105.84 342.72 109.56 344.54&#10;  Q 117.11 348.24 118.88 348.92&#10;  Q 122.48 350.31 126.63 352.31&#10;  Q 128.59 353.25 134.54 355.32&#10;  Q 144.70 358.85 151.69 361.50&#10;  Q 156.10 363.16 162.11 364.60&#10;  Q 174.01 367.44 187.04 369.91&#10;  Q 189.76 370.42 193.08 370.78&#10;  C 195.73 371.06 198.22 371.91 201.11 372.16&#10;  Q 213.50 373.23 217.77 373.71&#10;  Q 222.54 374.25 228.75 374.27&#10;  Q 229.30 374.27 239.75 374.62&#10;  Q 243.51 374.75 254.25 374.65&#10;  Q 262.94 374.58 268.75 374.11&#10;  Q 284.76 372.81 302.49 370.06&#10;  Q 307.99 369.20 315.93 367.39&#10;  Q 322.06 365.99 329.34 364.40&#10;  Q 330.81 364.08 344.93 359.26&#10;  Q 345.13 359.20 360.37 353.64&#10;  Q 371.55 349.57 375.81 347.07&#10;  C 378.73 345.36 381.39 343.54 384.54 342.24&#10;  Q 398.01 336.71 409.06 329.77&#10;  Q 414.85 326.13 418.38 324.35&#10;  L 422.26 331.66&#10;  Q 411.92 336.95 401.86 342.33&#10;  Q 394.29 346.39 376.52 354.27&#10;  Q 375.38 354.77 370.49 356.55&#10;  Q 368.01 357.45 364.50 358.97&#10;  Q 350.22 365.17 331.73 369.94&#10;  Q 327.50 371.03 325.82 371.54&#10;  Q 322.30 372.60 319.89 372.98&#10;  Q 313.95 373.90 305.31 375.77&#10;  C 301.80 376.53 298.11 376.74 295.08 377.51&#10;  C 288.99 379.05 282.50 379.35 276.25 379.69&#10;  Q 273.03 379.87 262.24 380.31&#10;  Q 254.10 380.65 248.27 380.55&#10;  Q 223.96 380.17 199.62 377.33&#10;  Q 192.21 376.46 182.72 374.43&#10;  Q 171.66 372.07 165.96 370.68&#10;  Q 154.64 367.92 152.27 367.46&#10;  Q 147.18 366.47 141.82 364.07&#10;  Q 138.78 362.72 130.92 359.99&#10;  C 127.31 358.74 124.66 357.18 121.22 356.10&#10;  C 115.98 354.47 109.86 351.01 105.91 349.18&#10;  Q 103.24 347.94 97.96 344.95&#10;  Q 93.21 342.25 88.04 340.15&#10;  C 83.79 338.42 80.63 335.92 76.70 333.30&#10;  Q 73.58 331.23 69.99 330.52&#10;  Q 71.05 327.03 72.96 324.64&#10;  Z"/>
<path fill="#f7da87" d="&#10;  M 69.99 330.52&#10;  Q 73.58 331.23 76.70 333.30&#10;  C 80.63 335.92 83.79 338.42 88.04 340.15&#10;  Q 93.21 342.25 97.96 344.95&#10;  Q 103.24 347.94 105.91 349.18&#10;  C 109.86 351.01 115.98 354.47 121.22 356.10&#10;  C 124.66 357.18 127.31 358.74 130.92 359.99&#10;  Q 138.78 362.72 141.82 364.07&#10;  Q 147.18 366.47 152.27 367.46&#10;  Q 154.64 367.92 165.96 370.68&#10;  Q 171.66 372.07 182.72 374.43&#10;  Q 192.21 376.46 199.62 377.33&#10;  Q 223.96 380.17 248.27 380.55&#10;  Q 254.10 380.65 262.24 380.31&#10;  Q 273.03 379.87 276.25 379.69&#10;  C 282.50 379.35 288.99 379.05 295.08 377.51&#10;  C 298.11 376.74 301.80 376.53 305.31 375.77&#10;  Q 313.95 373.90 319.89 372.98&#10;  Q 322.30 372.60 325.82 371.54&#10;  Q 327.50 371.03 331.73 369.94&#10;  Q 350.22 365.17 364.50 358.97&#10;  Q 368.01 357.45 370.49 356.55&#10;  Q 375.38 354.77 376.52 354.27&#10;  Q 394.29 346.39 401.86 342.33&#10;  Q 411.92 336.95 422.26 331.66&#10;  Q 424.39 335.40 426.57 339.05&#10;  Q 428.43 342.19 430.67 346.54&#10;  Q 432.83 350.75 436.10 355.67&#10;  Q 437.22 357.36 437.17 359.38&#10;  Q 437.16 359.81 436.65 360.09&#10;  Q 435.94 360.48 421.68 368.25&#10;  Q 415.56 371.59 409.58 374.25&#10;  Q 404.32 376.59 401.43 378.09&#10;  Q 398.33 379.71 393.23 381.90&#10;  Q 383.31 386.18 380.74 387.41&#10;  Q 373.64 390.81 368.19 392.71&#10;  Q 354.98 397.31 343.04 400.87&#10;  Q 341.44 401.34 331.20 404.59&#10;  Q 325.57 406.37 319.21 407.87&#10;  Q 300.63 412.25 282.72 413.39&#10;  C 279.18 413.61 275.73 414.99 272.25 415.20&#10;  Q 249.53 416.61 226.19 415.61&#10;  Q 219.14 415.30 211.07 413.96&#10;  C 203.16 412.64 194.84 412.60 187.18 410.86&#10;  Q 182.96 409.91 179.98 409.45&#10;  Q 174.42 408.59 171.80 407.77&#10;  Q 169.48 407.04 163.58 405.42&#10;  Q 163.26 405.33 127.45 394.04&#10;  Q 118.46 391.21 112.01 388.06&#10;  Q 105.05 384.67 99.30 382.40&#10;  Q 92.35 379.67 86.63 376.61&#10;  Q 80.92 373.56 73.43 370.14&#10;  Q 66.60 367.02 63.93 365.49&#10;  Q 59.04 362.69 54.48 360.51&#10;  Q 53.66 360.11 54.10 359.32&#10;  L 69.99 330.52&#10;  Z"/>
</svg>